<?xml version="1.0" encoding="UTF-8"?>
<svg version="1.1" xmlns="http://www.w3.org/2000/svg" width="1024" height="1024">
<path d="M0 0 C0.6838999 -0.00282738 1.3677998 -0.00565475 2.07242393 -0.00856781 C5.70054877 -0.02348533 9.3286347 -0.03275848 12.95678711 -0.03710938 C15.91134138 -0.04147141 18.86559992 -0.05528456 21.82006836 -0.078125 C38.29474346 -0.20297278 54.38524198 -0.08483278 70.60546875 3.203125 C72.12707526 3.49622338 73.64872244 3.78911066 75.17041016 4.08178711 C107.10462511 10.36507648 138.65600643 22.84682956 165.60546875 41.203125 C166.6728125 41.92371094 167.74015625 42.64429688 168.83984375 43.38671875 C175.27638656 47.76605919 181.54032731 52.31936763 187.60546875 57.203125 C188.50136719 57.91339844 189.39726563 58.62367187 190.3203125 59.35546875 C195.43314181 63.45835647 200.22543975 67.66990535 204.78125 72.3828125 C206.46243256 74.0603951 208.19123969 75.5325468 210.04296875 77.015625 C214.06075286 80.37445591 217.1707421 84.40380568 220.421875 88.48828125 C222.23341694 90.74055612 224.09442865 92.88369289 226.04296875 95.015625 C246.04105961 117.80521138 260.66627655 146.23084766 269.87646484 174.9453125 C270.55971277 177.06141324 271.27437775 179.16375128 272 181.265625 C275.63187423 192.01070369 277.7870061 203.01913724 279.60546875 214.203125 C279.78198975 215.18724365 279.95851074 216.1713623 280.14038086 217.18530273 C280.92799953 222.821637 280.80890605 228.5232046 280.84375 234.203125 C280.85182175 235.47043457 280.85989349 236.73774414 280.86820984 238.04345703 C280.88202125 240.72985445 280.89304183 243.41613059 280.90063477 246.10253906 C280.90939581 248.80785335 280.93003874 251.51263728 280.9621582 254.21777344 C281.20864318 276.65203742 279.24110159 297.71307944 272.60546875 319.203125 C272.36989258 319.9780127 272.13431641 320.75290039 271.89160156 321.55126953 C267.78239026 334.91265106 262.71570983 347.63301796 256.60546875 360.203125 C256.124729 361.19554199 256.124729 361.19554199 255.63427734 362.20800781 C251.66229588 370.28640058 246.9801824 377.7228951 241.98046875 385.203125 C236.59433111 393.30104129 232.78491219 400.98076421 229.60546875 410.203125 C228.85352002 412.2312895 228.08735406 414.25371692 227.32006836 416.27612305 C226.55176644 418.30489391 225.79423489 420.33740384 225.0390625 422.37109375 C223.75934016 425.80676781 222.4369757 429.22465031 221.10546875 432.640625 C219.14220634 437.70975592 217.32715342 442.8192703 215.54296875 447.953125 C213.75284338 453.10185578 211.84781438 458.09447751 209.53515625 463.03515625 C207.96441917 466.69800952 206.83036024 470.50736696 205.60546875 474.296875 C204.47021284 477.59621249 203.07169742 480.69781942 201.60546875 483.859375 C200.43743759 486.59694803 199.5208076 489.37129542 198.60546875 492.203125 C197.19037651 496.58106663 195.5386482 500.69095682 193.60546875 504.859375 C192.43743759 507.59694803 191.5208076 510.37129542 190.60546875 513.203125 C189.19037651 517.58106663 187.5386482 521.69095682 185.60546875 525.859375 C184.43743759 528.59694803 183.5208076 531.37129542 182.60546875 534.203125 C181.19037651 538.58106663 179.5386482 542.69095682 177.60546875 546.859375 C176.05500244 550.49328041 174.90335374 554.24563753 173.73046875 558.015625 C172.82332112 560.58587661 171.82685664 562.98258307 170.69921875 565.45703125 C168.5288816 570.25689262 166.79672056 575.1553792 165.10546875 580.140625 C163.08827239 585.99545346 161.05236043 591.81204859 158.68017578 597.53442383 C157.39133183 600.73486753 156.1813669 603.9626105 154.9765625 607.1953125 C154.43809389 608.63548659 153.89942851 610.07558713 153.3605957 611.515625 C153.07527985 612.2782666 152.78996399 613.0409082 152.4960022 613.82666016 C149.58950134 621.58290684 146.65739897 629.32957093 143.73046875 637.078125 C143.36242126 638.05254547 142.99437378 639.02696594 142.61517334 640.03091431 C136.36013523 656.58818084 130.07048295 673.13205236 123.76405334 689.6697998 C123.43199387 690.54060181 123.09993439 691.41140381 122.7578125 692.30859375 C122.25639992 693.62349792 122.25639992 693.62349792 121.74485779 694.96496582 C117.5856811 705.87443576 113.43938886 716.7888017 109.29296875 727.703125 C108.69745209 729.27058975 108.69745209 729.27058975 108.08990479 730.86972046 C106.06943657 736.1878475 104.04908701 741.5060196 102.02880859 746.82421875 C98.44991296 756.24514843 94.86989314 765.66565092 91.28994751 775.08618164 C89.31174087 780.29181155 87.33360861 785.49746972 85.35546875 790.703125 C84.56380244 792.78645847 83.77213577 794.8697918 82.98046875 796.953125 C82.58859375 797.984375 82.19671875 799.015625 81.79296875 800.078125 C59.23046878 859.45312493 59.23046878 859.45312493 58.04319763 862.57751465 C57.25076092 864.66287979 56.45833132 866.74824763 55.66590881 868.83361816 C53.698582 874.01088701 51.73113535 879.18811025 49.76342773 884.36523438 C46.05961641 894.11050884 42.35705776 903.85625432 38.65847778 913.60351562 C36.91518172 918.19759842 35.17123867 922.79143549 33.42724609 927.38525391 C32.59765839 929.57100359 31.76838621 931.75687306 30.93945312 933.94287109 C29.78856466 936.97784497 28.63657976 940.01240065 27.484375 943.046875 C27.14978775 943.93008423 26.8152005 944.81329346 26.47047424 945.7232666 C25.52208724 948.21913985 24.56399591 950.71113171 23.60546875 953.203125 C23.25580048 954.13294189 22.9061322 955.06275879 22.54586792 956.02075195 C22.19678375 956.92978271 21.84769958 957.83881348 21.48803711 958.77539062 C21.1749913 959.60026978 20.8619455 960.42514893 20.53941345 961.27502441 C19.60546875 963.203125 19.60546875 963.203125 17.60546875 964.203125 C17.37568832 963.58815659 17.1459079 962.97318817 16.90916443 962.33958435 C3.17561221 925.53193234 3.17561221 925.53193234 -10.83203125 888.828125 C-16.9983245 872.87237401 -23.08328696 856.88657417 -29.14453125 840.890625 C-29.61917898 839.63812167 -30.09382904 838.38561923 -30.56848145 837.13311768 C-32.46421464 832.13054664 -34.35979206 827.12791662 -36.25509644 822.12518311 C-40.85620392 809.9815041 -45.4678346 797.84183548 -50.08203125 785.703125 C-50.86165816 783.65193856 -51.64128056 781.60075041 -52.42089844 779.54956055 C-53.96981742 775.47441928 -55.5188218 771.39931049 -57.06787109 767.32421875 C-60.6142874 757.9944302 -64.15950294 748.66418536 -67.70483398 739.33398438 C-68.89107353 736.21222448 -70.07736404 733.09048395 -71.26367188 729.96875 C-74.85422528 720.52026612 -78.44457231 711.07170403 -82.0340271 701.62280273 C-89.8126195 681.14643181 -97.59379343 660.6710711 -105.39453125 640.203125 C-113.60180921 618.66847959 -121.78722712 597.12554558 -129.97119141 575.58203125 C-133.55008704 566.16110157 -137.13010686 556.74059908 -140.71005249 547.32006836 C-142.68825913 542.11443845 -144.66639139 536.90878028 -146.64453125 531.703125 C-147.43619756 529.61979153 -148.22786423 527.5364582 -149.01953125 525.453125 C-150.60286458 521.28645833 -152.18619792 517.11979167 -153.76953125 512.953125 C-154.16136093 511.92200089 -154.55319061 510.89087677 -154.95689392 509.82850647 C-155.74903613 507.74390833 -156.54116054 505.65930342 -157.33326721 503.57469177 C-159.30501272 498.38565463 -161.27706125 493.19673305 -163.24975586 488.00805664 C-167.3270487 477.28271348 -171.39846851 466.55518622 -175.4609375 455.82421875 C-179.7650069 444.4567146 -184.08739283 433.09630783 -188.42584229 421.74188232 C-189.31317116 419.41635497 -190.19711036 417.08957796 -191.07958984 414.76220703 C-192.41784073 411.2359579 -193.77799463 407.71852064 -195.14453125 404.203125 C-195.66285522 402.8272522 -195.66285522 402.8272522 -196.19165039 401.42358398 C-198.37439635 395.89342785 -201.20670074 391.32476894 -204.70849609 386.52490234 C-206.93545377 383.45824038 -208.90388243 380.27555023 -210.83203125 377.015625 C-211.39760742 376.05946289 -211.39760742 376.05946289 -211.97460938 375.08398438 C-213.12265314 373.12827162 -214.25979086 371.16658032 -215.39453125 369.203125 C-215.73629395 368.61966309 -216.07805664 368.03620117 -216.43017578 367.43505859 C-225.12868204 352.46444914 -231.02581711 336.11349919 -236.20703125 319.640625 C-236.47265869 318.81755859 -236.73828613 317.99449219 -237.01196289 317.14648438 C-237.9070439 314.18369032 -238.66599305 311.21160409 -239.39453125 308.203125 C-239.56538239 307.51370819 -239.73623352 306.82429138 -239.91226196 306.11398315 C-243.88225756 289.51068117 -244.04930427 272.97191403 -243.97094727 256.00952148 C-243.9572142 252.93518337 -243.96411212 249.86208813 -243.99145508 246.7878418 C-244.16094033 227.6633489 -243.22870045 209.84395504 -238.39453125 191.203125 C-238.22305573 190.51149261 -238.0515802 189.81986023 -237.87490845 189.10726929 C-236.96062242 185.42996019 -235.9193798 181.81319436 -234.76953125 178.203125 C-234.43816162 177.14754395 -234.10679199 176.09196289 -233.76538086 175.00439453 C-223.47826894 143.34271536 -206.63207684 113.97784022 -184.39453125 89.203125 C-183.8325 88.5328125 -183.27046875 87.8625 -182.69140625 87.171875 C-173.43199508 76.13540512 -162.82647309 65.94519817 -151.39453125 57.203125 C-150.81123047 56.74873047 -150.22792969 56.29433594 -149.62695312 55.82617188 C-107.24546257 22.83381154 -54.25728769 0.17567143 0 0 Z M-10.39453125 146.203125 C-11.23580566 146.43418945 -12.07708008 146.66525391 -12.94384766 146.90332031 C-46.37834284 156.33736598 -72.26680332 174.93054929 -89.42529297 205.45898438 C-89.7451416 206.03455078 -90.06499023 206.61011719 -90.39453125 207.203125 C-91.13896484 208.54117188 -91.13896484 208.54117188 -91.8984375 209.90625 C-103.18565336 232.40991547 -103.57932761 258.36463576 -95.94140625 281.9609375 C-92.01096434 293.22855 -85.86529893 306.73235732 -77.39453125 315.203125 C-73.38821592 314.9019669 -70.132282 312.3721049 -66.83203125 310.265625 C-66.13843506 309.82726318 -65.44483887 309.38890137 -64.73022461 308.93725586 C-57.11276724 304.08533584 -49.61469027 299.051717 -42.11206055 294.02490234 C-34.68976694 289.05425528 -27.24489984 284.11930573 -19.78125 279.2109375 C-18.86324112 278.60718796 -17.94523224 278.00343842 -16.99940491 277.38139343 C-13.30183493 274.95037294 -9.60378226 272.52009509 -5.90408325 270.09231567 C-3.30120767 268.38427195 -0.6993865 266.67463136 1.90234375 264.96484375 C2.67737747 264.45716461 3.45241119 263.94948547 4.25093079 263.42642212 C6.37622568 262.02895636 8.49343839 260.62054543 10.60546875 259.203125 C11.29692993 258.74161041 11.98839111 258.28009583 12.70080566 257.80459595 C14.37345403 256.65730251 15.99541801 255.43672598 17.60546875 254.203125 C17.60546875 253.543125 17.60546875 252.883125 17.60546875 252.203125 C18.39042725 252.72817627 19.17538574 253.25322754 19.98413086 253.79418945 C38.11180536 265.91564967 56.28634253 277.96364694 74.50604248 289.9463501 C87.23688134 298.31938525 99.94876718 306.71827302 112.60546875 315.203125 C123.41318878 304.70471682 129.63720174 291.2001558 133.98046875 276.953125 C134.23119141 276.13803467 134.48191406 275.32294434 134.74023438 274.4831543 C141.34636487 251.67682286 136.97886499 225.76385773 126.06689453 204.94287109 C121.65737878 196.97396854 116.65626669 190.01910167 110.60546875 183.203125 C109.64060547 181.95208984 109.64060547 181.95208984 108.65625 180.67578125 C90.3324982 158.58257194 58.25421931 146.47273492 30.60546875 143.203125 C16.84809923 142.28980946 2.94687358 142.51832704 -10.39453125 146.203125 Z " fill="#9CD0F0" transform="translate(493.39453125,50.796875)"/>
<path d="M0 0 C0.6838999 -0.00282738 1.3677998 -0.00565475 2.07242393 -0.00856781 C5.70054877 -0.02348533 9.3286347 -0.03275848 12.95678711 -0.03710938 C15.91134138 -0.04147141 18.86559992 -0.05528456 21.82006836 -0.078125 C38.29474346 -0.20297278 54.38524198 -0.08483278 70.60546875 3.203125 C72.12707526 3.49622338 73.64872244 3.78911066 75.17041016 4.08178711 C107.10462511 10.36507648 138.65600643 22.84682956 165.60546875 41.203125 C166.6728125 41.92371094 167.74015625 42.64429688 168.83984375 43.38671875 C175.27638656 47.76605919 181.54032731 52.31936763 187.60546875 57.203125 C188.50136719 57.91339844 189.39726563 58.62367187 190.3203125 59.35546875 C195.43314181 63.45835647 200.22543975 67.66990535 204.78125 72.3828125 C206.46243256 74.0603951 208.19123969 75.5325468 210.04296875 77.015625 C214.06075286 80.37445591 217.1707421 84.40380568 220.421875 88.48828125 C222.23341694 90.74055612 224.09442865 92.88369289 226.04296875 95.015625 C246.04105961 117.80521138 260.66627655 146.23084766 269.87646484 174.9453125 C270.55971277 177.06141324 271.27437775 179.16375128 272 181.265625 C275.63187423 192.01070369 277.7870061 203.01913724 279.60546875 214.203125 C279.78198975 215.18724365 279.95851074 216.1713623 280.14038086 217.18530273 C280.92799953 222.821637 280.80890605 228.5232046 280.84375 234.203125 C280.85182175 235.47043457 280.85989349 236.73774414 280.86820984 238.04345703 C280.88202125 240.72985445 280.89304183 243.41613059 280.90063477 246.10253906 C280.90939581 248.80785335 280.93003874 251.51263728 280.9621582 254.21777344 C281.20864318 276.65203742 279.24110159 297.71307944 272.60546875 319.203125 C272.36989258 319.9780127 272.13431641 320.75290039 271.89160156 321.55126953 C267.78239026 334.91265106 262.71570983 347.63301796 256.60546875 360.203125 C256.124729 361.19554199 256.124729 361.19554199 255.63427734 362.20800781 C249.93550732 373.79842003 242.76458634 384.47592155 235.60546875 395.203125 C227.91309806 391.24228373 220.82412455 386.41576518 213.66491699 381.58612061 C210.21527745 379.26956016 206.74242892 376.98851553 203.26953125 374.70703125 C202.18949829 373.99686607 202.18949829 373.99686607 201.08764648 373.27235413 C199.58366337 372.28353953 198.07955089 371.29492167 196.57531738 370.30648804 C193.30604253 368.15815969 190.03757717 366.00860107 186.76904297 363.85914612 C184.16478158 362.14655381 181.56041919 360.43411517 178.95605469 358.72167969 C170.79947931 353.35818036 162.64430579 347.99255292 154.49041748 342.62496948 C152.7659858 341.48993465 151.0414223 340.35510005 149.31671143 339.2204895 C148.49886169 338.68245697 147.68101196 338.14442444 146.83837891 337.59008789 C146.03232208 337.05981491 145.22626526 336.52954193 144.39578247 335.98320007 C142.03589528 334.42856403 139.67900637 332.86945891 137.32226562 331.31005859 C134.03049134 329.13411804 130.72218062 326.98599499 127.40429688 324.85009766 C125.73694149 323.76600846 124.06962251 322.68186328 122.40234375 321.59765625 C121.61796936 321.09932785 120.83359497 320.60099945 120.02545166 320.08757019 C119.31290222 319.62143814 118.60035278 319.15530609 117.86621094 318.67504883 C117.23463074 318.26877762 116.60305054 317.86250641 115.95233154 317.44392395 C115.50786682 317.0344603 115.0634021 316.62499664 114.60546875 316.203125 C114.60546875 312.55437736 115.41617573 311.85486438 117.60546875 309.015625 C124.68723203 299.10115641 129.50330287 288.46141288 133.04296875 276.828125 C133.28990479 276.02068848 133.53684082 275.21325195 133.79125977 274.38134766 C140.5883801 250.68465384 135.58437729 223.94969146 123.79296875 202.640625 C119.37774195 194.93386462 114.33277858 187.67775012 107.8515625 181.54296875 C106.60546875 180.203125 106.60546875 180.203125 106.60546875 178.203125 C106.05503906 177.96722656 105.50460937 177.73132813 104.9375 177.48828125 C102.02000329 175.88048156 99.78947092 173.84707713 97.29296875 171.640625 C84.23455196 160.46955752 69.5096976 153.80707393 53.10546875 149.015625 C52.25130371 148.76530518 51.39713867 148.51498535 50.51708984 148.25708008 C30.94846849 142.75561465 9.31052048 141.76073454 -10.39453125 147.203125 C-11.23580566 147.43418945 -12.07708008 147.66525391 -12.94384766 147.90332031 C-44.88095223 156.9148547 -70.48940328 174.05860291 -87.20703125 203.265625 C-90.59864148 209.39305284 -93.44297282 215.45474539 -95.39453125 222.203125 C-95.75289062 223.42515625 -96.11125 224.6471875 -96.48046875 225.90625 C-103.74276974 251.93718944 -99.29289438 277.03074013 -86.421875 300.39892578 C-83.92428061 304.78514786 -81.22161252 309.02362918 -78.39453125 313.203125 C-77.40453125 314.688125 -77.40453125 314.688125 -76.39453125 316.203125 C-98.31681158 330.86672973 -120.30985783 345.42003794 -142.34825134 359.90847778 C-148.86118105 364.1913714 -155.36707474 368.48483997 -161.87109375 372.78125 C-164.67990444 374.63546933 -167.48884874 376.48948606 -170.29785156 378.34341431 C-172.09553834 379.53048342 -173.89274833 380.71827495 -175.68945312 381.90682983 C-178.18621399 383.55833311 -180.68471631 385.20717044 -183.18359375 386.85546875 C-183.91405914 387.33965271 -184.64452454 387.82383667 -185.39712524 388.32269287 C-189.64567612 391.12081112 -193.95123826 393.72506484 -198.39453125 396.203125 C-214.34240608 373.2339513 -226.78034375 349.33454071 -235.26953125 322.640625 C-235.62684326 321.53138672 -235.98415527 320.42214844 -236.35229492 319.27929688 C-237.47094408 315.61048671 -238.47222637 311.92508228 -239.39453125 308.203125 C-239.67047623 307.10519119 -239.67047623 307.10519119 -239.95199585 305.9850769 C-243.93678084 289.44782329 -244.04891477 272.91064967 -243.97094727 256.00952148 C-243.9572142 252.93518337 -243.96411212 249.86208813 -243.99145508 246.7878418 C-244.16094033 227.6633489 -243.22870045 209.84395504 -238.39453125 191.203125 C-238.22305573 190.51149261 -238.0515802 189.81986023 -237.87490845 189.10726929 C-236.96062242 185.42996019 -235.9193798 181.81319436 -234.76953125 178.203125 C-234.43816162 177.14754395 -234.10679199 176.09196289 -233.76538086 175.00439453 C-223.47826894 143.34271536 -206.63207684 113.97784022 -184.39453125 89.203125 C-183.8325 88.5328125 -183.27046875 87.8625 -182.69140625 87.171875 C-173.43199508 76.13540512 -162.82647309 65.94519817 -151.39453125 57.203125 C-150.81123047 56.74873047 -150.22792969 56.29433594 -149.62695312 55.82617188 C-107.24546257 22.83381154 -54.25728769 0.17567143 0 0 Z " fill="#031927" transform="translate(493.39453125,50.796875)"/>
<path d="M0 0 C1.62372621 3.24745242 0.04028295 6.39785499 -0.86743164 9.75537109 C-1.07913246 10.56065404 -1.29083328 11.36593699 -1.50894928 12.19562244 C-2.21918268 14.890086 -2.93963098 17.58170939 -3.66015625 20.2734375 C-4.16269469 22.17084898 -4.66463168 24.06841984 -5.16600037 25.96614075 C-6.23483061 30.00602583 -7.30825373 34.04465231 -8.38525391 38.08236694 C-10.05879866 44.35667376 -11.72123474 50.6338925 -13.3828125 56.91137695 C-17.93393205 74.09044267 -22.50361745 91.26430784 -27.1889019 108.40733337 C-27.70363001 110.29099429 -28.2171921 112.17497371 -28.73072815 114.05895996 C-30.21931219 119.51712495 -31.71785133 124.97207343 -33.23852539 130.42138672 C-33.75308464 132.29516018 -34.26734836 134.16901483 -34.78125 136.04296875 C-35.01130234 136.85022903 -35.24135468 137.65748932 -35.4783783 138.48921204 C-35.68209549 139.23938095 -35.88581268 139.98954987 -36.09570312 140.76245117 C-36.27202271 141.39398605 -36.44834229 142.02552094 -36.63000488 142.67619324 C-37.66172372 149.15604962 -36.80933447 155.01181326 -35.34887695 161.31616211 C-35.08127532 162.51836977 -35.08127532 162.51836977 -34.80826759 163.74486446 C-34.20969322 166.42424357 -33.59897269 169.10070257 -32.98828125 171.77734375 C-32.55187467 173.71916306 -32.11623274 175.66115436 -31.68128967 177.603302 C-30.48675341 182.92731303 -29.28167895 188.24889127 -28.07494354 193.57014847 C-26.78336816 199.27442437 -25.50180486 204.98094895 -24.21923828 210.68725586 C-21.99736804 220.56705404 -19.76975236 230.44554211 -17.53857422 240.32324219 C-14.08626145 255.60868764 -10.64767138 270.89720133 -7.21231937 286.18646646 C-6.44657706 289.5942831 -5.68064434 293.00205695 -4.91473389 296.40983582 C-2.2983031 308.05149416 0.31753554 319.69328541 2.93247986 331.33527774 C4.45622535 338.11905357 5.98036208 344.90274146 7.50473499 351.68637633 C7.95592324 353.69428782 8.40705186 355.7022127 8.85817719 357.71013832 C12.53567533 374.07719391 16.22965004 390.44042898 19.94421387 406.79911804 C21.70779762 414.5672284 23.46370968 422.3370655 25.21706009 430.10749149 C26.58702382 436.17611558 27.96685748 442.24237486 29.35465145 448.30694485 C30.19327063 451.98290686 31.02211188 455.66102083 31.84812355 459.33983421 C32.22565835 461.01203867 32.60720253 462.68334433 32.99326134 464.35360146 C33.51732448 466.62322176 34.02656501 468.89570753 34.5324707 471.16943359 C34.81806351 472.42581635 35.10365631 473.6821991 35.39790344 474.97665405 C37.42752636 486.70564347 34.92812139 498.36035998 33.07836914 509.95263672 C32.76399079 511.96258269 32.45036674 513.97264676 32.13743591 515.9828186 C31.46457935 520.29467165 30.78649919 524.60565833 30.10429573 528.91604233 C29.02421659 535.74095221 27.95629512 542.56773101 26.88999939 549.39480591 C25.00897978 561.4281721 23.11778713 573.45992258 21.2243042 585.49133301 C18.37540737 603.59403271 15.53438862 621.69796576 12.70314306 639.80343449 C11.64299829 646.58041736 10.57750967 653.35653148 9.50768101 660.1319921 C8.84133082 664.35821965 8.17913081 668.58509032 7.51795387 672.81212997 C7.21216607 674.76137997 6.90465296 676.71036027 6.59521866 678.65903473 C5.10729685 688.0344139 3.7014227 697.27291031 3.30679989 706.76915169 C3.20555593 707.50533163 3.10431196 708.24151157 3 709 C2.34 709.33 1.68 709.66 1 710 C0.77021957 709.38503159 0.54043915 708.77006317 0.30369568 708.13645935 C-13.42985654 671.32880734 -13.42985654 671.32880734 -27.4375 634.625 C-33.60379325 618.66924901 -39.68875571 602.68344917 -45.75 586.6875 C-46.22464773 585.43499667 -46.69929779 584.18249423 -47.1739502 582.92999268 C-49.06968339 577.92742164 -50.96526081 572.92479162 -52.86056519 567.92205811 C-57.46167267 555.7783791 -62.07330335 543.63871048 -66.6875 531.5 C-67.46712691 529.44881356 -68.24674931 527.39762541 -69.02636719 525.34643555 C-70.57528617 521.27129428 -72.12429055 517.19618549 -73.67333984 513.12109375 C-77.21975615 503.7913052 -80.76497169 494.46106036 -84.31030273 485.13085938 C-85.49654228 482.00909948 -86.68283279 478.88735895 -87.86914062 475.765625 C-91.45969403 466.31714112 -95.05004106 456.86857903 -98.63949585 447.41967773 C-106.41808825 426.94330681 -114.19926218 406.4679461 -122 386 C-130.20727796 364.46535459 -138.39269587 342.92242058 -146.57666016 321.37890625 C-150.15555579 311.95797657 -153.73557561 302.53747408 -157.31552124 293.11694336 C-159.29372788 287.91131345 -161.27186014 282.70565528 -163.25 277.5 C-164.04166631 275.41666653 -164.83333298 273.3333332 -165.625 271.25 C-167.20833333 267.08333333 -168.79166667 262.91666667 -170.375 258.75 C-170.76681961 257.71889603 -171.15863922 256.68779205 -171.56233215 255.6254425 C-172.35455902 253.54063443 -173.14678517 251.45582608 -173.93901062 249.37101746 C-175.90960041 244.18524553 -177.88020229 238.99947819 -179.85083008 233.8137207 C-183.51538258 224.17031903 -187.17982098 214.52687406 -190.84384155 204.88327026 C-192.54868027 200.39620236 -194.25358588 195.90915988 -195.95849609 191.42211914 C-196.76044983 189.31145466 -197.56237187 187.20077813 -198.36425781 185.09008789 C-199.11963532 183.10181946 -199.87521618 181.11362827 -200.63101196 179.1255188 C-201.355713 177.2172621 -202.07903301 175.30848027 -202.8008728 173.3991394 C-204.61956584 168.59486378 -206.46684928 163.8045415 -208.36181641 159.02978516 C-208.73985916 158.06720291 -209.11790192 157.10462067 -209.50740051 156.11286926 C-210.22656528 154.28414168 -210.9543769 152.45878291 -211.69218445 150.63749695 C-212.01072891 149.82295547 -212.32927338 149.008414 -212.6574707 148.16918945 C-212.94177444 147.45793411 -213.22607819 146.74667877 -213.51899719 146.01387024 C-214.09540632 143.6005513 -213.91835472 142.29527371 -213 140 C-210.96025073 138.49603741 -209.00087642 137.25502136 -206.8125 136 C-198.90306407 131.253974 -191.21966281 126.20153967 -183.5625 121.0625 C-180.93969333 119.30595767 -178.31577678 117.55107986 -175.69140625 115.796875 C-175.00230667 115.33622147 -174.31320709 114.87556793 -173.60322571 114.4009552 C-164.76247673 108.49727605 -155.88093631 102.6554702 -147 96.8125 C-146.13230988 96.24153595 -145.26461975 95.6705719 -144.37063599 95.08230591 C-139.09946563 91.61396118 -133.82746605 88.14687884 -128.55517578 84.68023682 C-124.49468742 82.01013401 -120.43483095 79.33907099 -116.375 76.66796875 C-114.80818791 75.63712403 -113.24137477 74.60628093 -111.67456055 73.57543945 C-110.90316742 73.06792145 -110.13177429 72.56040344 -109.33700562 72.0375061 C-106.99271615 70.49520798 -104.64834677 68.9530314 -102.30395508 67.41088867 C-86.50650819 57.01909885 -70.71458007 46.61893397 -54.92311096 36.21806335 C-48.45178977 31.95589752 -41.97987797 27.69462929 -35.5078125 23.43359375 C-32.68746107 21.57665259 -29.86712007 19.71969559 -27.04678345 17.86273193 C-25.24064924 16.67358657 -23.43447727 15.48449856 -21.62826538 14.29547119 C-19.12316791 12.64635555 -16.61821006 10.99702805 -14.11328125 9.34765625 C-13.37767975 8.8634874 -12.64207825 8.37931854 -11.88418579 7.88047791 C-7.9143125 5.26619302 -3.95223153 2.6408849 0 0 Z " fill="#508AA8" transform="translate(510,305)"/>
</svg>
